ffmpeg version 8.1.1-full_build-www.gyan.dev Copyright (c) 2000-2026 the FFmpeg developers
  built with gcc 15.2.0 (Rev13, Built by MSYS2 project)
  configuration: --enable-gpl --enable-version3 --enable-static --disable-w32threads --disable-autodetect --enable-cairo --enable-fontconfig --enable-iconv --enable-gnutls --enable-lcms2 --enable-libxml2 --enable-gmp --enable-bzlib --enable-lzma --enable-libsnappy --enable-zlib --enable-librist --enable-libsrt --enable-libssh --enable-libzmq --enable-avisynth --enable-libbluray --enable-libcaca --enable-libdvdnav --enable-libdvdread --enable-sdl2 --enable-libaribb24 --enable-libaribcaption --enable-libdav1d --enable-libdavs2 --enable-libopenjpeg --enable-libquirc --enable-libuavs3d --enable-libxevd --enable-libzvbi --enable-liboapv --enable-libqrencode --enable-librav1e --enable-libsvtav1 --enable-libvvenc --enable-libwebp --enable-libx264 --enable-libx265 --enable-libxavs2 --enable-libxeve --enable-libxvid --enable-libaom --enable-libjxl --enable-libsvtjpegxs --enable-libvpx --enable-mediafoundation --enable-libass --enable-frei0r --enable-libfreetype --enable-libfribidi --enable-libharfbuzz --enable-liblensfun --enable-libvidstab --enable-libvmaf --enable-libzimg --enable-amf --enable-cuda-llvm --enable-cuvid --enable-dxva2 --enable-d3d11va --enable-d3d12va --enable-ffnvcodec --enable-libvpl --enable-nvdec --enable-nvenc --enable-vaapi --enable-libshaderc --enable-vulkan --enable-libplacebo --enable-opencl --enable-libcdio --enable-openal --enable-libgme --enable-libmodplug --enable-libopenmpt --enable-libopencore-amrwb --enable-libmp3lame --enable-libshine --enable-libtheora --enable-libtwolame --enable-libvo-amrwbenc --enable-libcodec2 --enable-libilbc --enable-libgsm --enable-liblc3 --enable-libopencore-amrnb --enable-libopus --enable-libspeex --enable-libvorbis --enable-ladspa --enable-libbs2b --enable-libflite --enable-libmysofa --enable-librubberband --enable-libsoxr --enable-chromaprint --enable-whisper
  libavutil      60. 26.101 / 60. 26.101
  libavcodec     62. 28.101 / 62. 28.101
  libavformat    62. 12.101 / 62. 12.101
  libavdevice    62.  3.101 / 62.  3.101
  libavfilter    11. 14.101 / 11. 14.101
  libswscale      9.  5.101 /  9.  5.101
  libswresample   6.  3.101 /  6.  3.101
[in#0 @ 000001ad64ba2b40] Unknown cover type: 0x1.
Input #0, mov,mp4,m4a,3gp,3g2,mj2, from 'E:/hmdocument/大二下小学期/carMate_vision/mediamtx/test_video.mp4':
  Metadata:
    major_brand     : isom
    minor_version   : 512
    compatible_brands: isomiso2avc1mp41
    creation_time   : 2025-11-18T04:57:33.000000Z
    Hw              : 1
    bitrate         : 18000000
    maxrate         : 0
    te_is_reencode  : 1
    encoder         : Lavf61.1.100
  Duration: 00:00:54.78, start: 0.000000, bitrate: 14213 kb/s
  Stream #0:0[0x1](und): Video: h264 (Main) (avc1 / 0x31637661), yuv420p(tv, bt709, progressive), 3200x1440 [SAR 1:1 DAR 20:9], 14017 kb/s, 30 fps, 30 tbr, 30 tbn (default)
    Metadata:
      creation_time   : 2025-11-18T04:57:33.000000Z
      handler_name    : VideoHandler
  Stream #0:1[0x2](und): Audio: aac (LC) (mp4a / 0x6134706D), 44100 Hz, stereo, fltp, 191 kb/s (default)
    Metadata:
      creation_time   : 2025-11-18T04:57:33.000000Z
      handler_name    : SoundHandler
Stream mapping:
  Stream #0:0 -> #0:0 (copy)
  Stream #0:1 -> #0:1 (copy)
Output #0, rtsp, to 'rtsp://localhost:8554/camera':
  Metadata:
    major_brand     : isom
    minor_version   : 512
    compatible_brands: isomiso2avc1mp41
    te_is_reencode  : 1
    Hw              : 1
    bitrate         : 18000000
    maxrate         : 0
    encoder         : Lavf62.12.101
  Stream #0:0(und): Video: h264 (Main) (avc1 / 0x31637661), yuv420p(tv, bt709, progressive), 3200x1440 [SAR 1:1 DAR 20:9], q=2-31, 14017 kb/s, 30 fps, 30 tbr, 90k tbn (default)
    Metadata:
      creation_time   : 2025-11-18T04:57:33.000000Z
      handler_name    : VideoHandler
  Stream #0:1(und): Audio: aac (LC) (mp4a / 0x6134706D), 44100 Hz, stereo, fltp, 191 kb/s (default)
    Metadata:
      creation_time   : 2025-11-18T04:57:33.000000Z
      handler_name    : SoundHandler
Press [q] to stop, [?] for help
frame=    9 fps=0.0 q=-1.0 size=N/A time=00:00:00.26 bitrate=N/A speed=0.527x elapsed=0:00:00.50    frame=   17 fps= 17 q=-1.0 size=N/A time=00:00:00.53 bitrate=N/A speed=0.518x elapsed=0:00:01.02    [vist#0:0/h264 @ 000001ad66ce2d80] Resumed reading at pts 0.533 with rate 1.050 after a lag of 1.010s
frame=   33 fps= 21 q=-1.0 size=N/A time=00:00:01.06 bitrate=N/A speed=0.692x elapsed=0:00:01.54    frame=   49 fps= 24 q=-1.0 size=N/A time=00:00:01.60 bitrate=N/A speed=0.775x elapsed=0:00:02.06    frame=   63 fps= 24 q=-1.0 size=N/A time=00:00:02.06 bitrate=N/A speed=0.802x elapsed=0:00:02.57    frame=   79 fps= 26 q=-1.0 size=N/A time=00:00:02.60 bitrate=N/A speed=0.842x elapsed=0:00:03.08    frame=   95 fps= 26 q=-1.0 size=N/A time=00:00:03.13 bitrate=N/A speed=0.868x elapsed=0:00:03.60    frame=  110 fps= 27 q=-1.0 size=N/A time=00:00:03.63 bitrate=N/A speed=0.882x elapsed=0:00:04.12    frame=  125 fps= 27 q=-1.0 size=N/A time=00:00:04.13 bitrate=N/A speed=0.891x elapsed=0:00:04.63    frame=  141 fps= 27 q=-1.0 size=N/A time=00:00:04.66 bitrate=N/A speed=0.906x elapsed=0:00:05.15    frame=  156 fps= 28 q=-1.0 size=N/A time=00:00:05.16 bitrate=N/A speed=0.911x elapsed=0:00:05.67    frame=  173 fps= 28 q=-1.0 size=N/A time=00:00:05.73 bitrate=N/A speed=0.926x elapsed=0:00:06.19    frame=  187 fps= 28 q=-1.0 size=N/A time=00:00:06.20 bitrate=N/A speed=0.926x elapsed=0:00:06.69    frame=  203 fps= 28 q=-1.0 size=N/A time=00:00:06.73 bitrate=N/A speed=0.932x elapsed=0:00:07.22    frame=  219 fps= 28 q=-1.0 size=N/A time=00:00:07.26 bitrate=N/A speed=0.94x elapsed=0:00:07.73    frame=  234 fps= 28 q=-1.0 size=N/A time=00:00:07.76 bitrate=N/A speed=0.941x elapsed=0:00:08.25    frame=  249 fps= 28 q=-1.0 size=N/A time=00:00:08.26 bitrate=N/A speed=0.944x elapsed=0:00:08.75    frame=  265 fps= 29 q=-1.0 size=N/A time=00:00:08.80 bitrate=N/A speed=0.948x elapsed=0:00:09.28    frame=  281 fps= 29 q=-1.0 size=N/A time=00:00:09.33 bitrate=N/A speed=0.953x elapsed=0:00:09.79    frame=  295 fps= 29 q=-1.0 size=N/A time=00:00:09.80 bitrate=N/A speed=0.951x elapsed=0:00:10.30    frame=  311 fps= 29 q=-1.0 size=N/A time=00:00:10.33 bitrate=N/A speed=0.954x elapsed=0:00:10.83    frame=  327 fps= 29 q=-1.0 size=N/A time=00:00:10.86 bitrate=N/A speed=0.956x elapsed=0:00:11.36    frame=  342 fps= 29 q=-1.0 size=N/A time=00:00:11.36 bitrate=N/A speed=0.958x elapsed=0:00:11.86    frame=  358 fps= 29 q=-1.0 size=N/A time=00:00:11.90 bitrate=N/A speed=0.96x elapsed=0:00:12.39    frame=  373 fps= 29 q=-1.0 size=N/A time=00:00:12.40 bitrate=N/A speed=0.961x elapsed=0:00:12.90    frame=  389 fps= 29 q=-1.0 size=N/A time=00:00:12.93 bitrate=N/A speed=0.964x elapsed=0:00:13.41    frame=  404 fps= 29 q=-1.0 size=N/A time=00:00:13.43 bitrate=N/A speed=0.963x elapsed=0:00:13.94    frame=  421 fps= 29 q=-1.0 size=N/A time=00:00:14.00 bitrate=N/A speed=0.968x elapsed=0:00:14.45    frame=  435 fps= 29 q=-1.0 size=N/A time=00:00:14.46 bitrate=N/A speed=0.967x elapsed=0:00:14.96    frame=  451 fps= 29 q=-1.0 size=N/A time=00:00:15.00 bitrate=N/A speed=0.969x elapsed=0:00:15.47    frame=  467 fps= 29 q=-1.0 size=N/A time=00:00:15.53 bitrate=N/A speed=0.971x elapsed=0:00:16.00    frame=  482 fps= 29 q=-1.0 size=N/A time=00:00:16.03 bitrate=N/A speed=0.971x elapsed=0:00:16.50    frame=  497 fps= 29 q=-1.0 size=N/A time=00:00:16.53 bitrate=N/A speed=0.97x elapsed=0:00:17.03    frame=  513 fps= 29 q=-1.0 size=N/A time=00:00:17.06 bitrate=N/A speed=0.973x elapsed=0:00:17.54    frame=  529 fps= 29 q=-1.0 size=N/A time=00:00:17.60 bitrate=N/A speed=0.974x elapsed=0:00:18.06    frame=  544 fps= 29 q=-1.0 size=N/A time=00:00:18.06 bitrate=N/A speed=0.973x elapsed=0:00:18.57    frame=  560 fps= 29 q=-1.0 size=N/A time=00:00:18.63 bitrate=N/A speed=0.976x elapsed=0:00:19.09    frame=  575 fps= 29 q=-1.0 size=N/A time=00:00:19.13 bitrate=N/A speed=0.976x elapsed=0:00:19.61    frame=  591 fps= 29 q=-1.0 size=N/A time=00:00:19.66 bitrate=N/A speed=0.977x elapsed=0:00:20.12    frame=  605 fps= 29 q=-1.0 size=N/A time=00:00:20.13 bitrate=N/A speed=0.976x elapsed=0:00:20.63    frame=  621 fps= 29 q=-1.0 size=N/A time=00:00:20.66 bitrate=N/A speed=0.977x elapsed=0:00:21.15    frame=  637 fps= 29 q=-1.0 size=N/A time=00:00:21.20 bitrate=N/A speed=0.978x elapsed=0:00:21.67    frame=  652 fps= 29 q=-1.0 size=N/A time=00:00:21.70 bitrate=N/A speed=0.978x elapsed=0:00:22.18    frame=  667 fps= 29 q=-1.0 size=N/A time=00:00:22.20 bitrate=N/A speed=0.978x elapsed=0:00:22.70    frame=  683 fps= 29 q=-1.0 size=N/A time=00:00:22.73 bitrate=N/A speed=0.979x elapsed=0:00:23.22    frame=  699 fps= 29 q=-1.0 size=N/A time=00:00:23.26 bitrate=N/A speed=0.98x elapsed=0:00:23.74    frame=  714 fps= 29 q=-1.0 size=N/A time=00:00:23.76 bitrate=N/A speed=0.98x elapsed=0:00:24.26    frame=  730 fps= 29 q=-1.0 size=N/A time=00:00:24.30 bitrate=N/A speed=0.98x elapsed=0:00:24.78    frame=  745 fps= 29 q=-1.0 size=N/A time=00:00:24.80 bitrate=N/A speed=0.981x elapsed=0:00:25.28    frame=  761 fps= 29 q=-1.0 size=N/A time=00:00:25.33 bitrate=N/A speed=0.981x elapsed=0:00:25.81    frame=  776 fps= 29 q=-1.0 size=N/A time=00:00:25.83 bitrate=N/A speed=0.981x elapsed=0:00:26.33    frame=  792 fps= 30 q=-1.0 size=N/A time=00:00:26.36 bitrate=N/A speed=0.982x elapsed=0:00:26.84    frame=  807 fps= 30 q=-1.0 size=N/A time=00:00:26.86 bitrate=N/A speed=0.982x elapsed=0:00:27.35    frame=  823 fps= 30 q=-1.0 size=N/A time=00:00:27.40 bitrate=N/A speed=0.983x elapsed=0:00:27.87    frame=  839 fps= 30 q=-1.0 size=N/A time=00:00:27.93 bitrate=N/A speed=0.984x elapsed=0:00:28.39    frame=  853 fps= 30 q=-1.0 size=N/A time=00:00:28.40 bitrate=N/A speed=0.983x elapsed=0:00:28.90    frame=  869 fps= 30 q=-1.0 size=N/A time=00:00:28.93 bitrate=N/A speed=0.983x elapsed=0:00:29.42    frame=  885 fps= 30 q=-1.0 size=N/A time=00:00:29.46 bitrate=N/A speed=0.984x elapsed=0:00:29.93    frame=  899 fps= 30 q=-1.0 size=N/A time=00:00:29.93 bitrate=N/A speed=0.983x elapsed=0:00:30.44    frame=  915 fps= 30 q=-1.0 size=N/A time=00:00:30.46 bitrate=N/A speed=0.984x elapsed=0:00:30.96    frame=  931 fps= 30 q=-1.0 size=N/A time=00:00:31.00 bitrate=N/A speed=0.985x elapsed=0:00:31.48    frame=  946 fps= 30 q=-1.0 size=N/A time=00:00:31.50 bitrate=N/A speed=0.984x elapsed=0:00:31.99    frame=  961 fps= 30 q=-1.0 size=N/A time=00:00:32.00 bitrate=N/A speed=0.984x elapsed=0:00:32.51    frame=  977 fps= 30 q=-1.0 size=N/A time=00:00:32.53 bitrate=N/A speed=0.985x elapsed=0:00:33.02    frame=  993 fps= 30 q=-1.0 size=N/A time=00:00:33.06 bitrate=N/A speed=0.986x elapsed=0:00:33.54    frame= 1008 fps= 30 q=-1.0 size=N/A time=00:00:33.56 bitrate=N/A speed=0.986x elapsed=0:00:34.05    frame= 1023 fps= 30 q=-1.0 size=N/A time=00:00:34.06 bitrate=N/A speed=0.985x elapsed=0:00:34.57    frame= 1039 fps= 30 q=-1.0 size=N/A time=00:00:34.60 bitrate=N/A speed=0.986x elapsed=0:00:35.09    frame= 1055 fps= 30 q=-1.0 size=N/A time=00:00:35.13 bitrate=N/A speed=0.987x elapsed=0:00:35.61    frame= 1070 fps= 30 q=-1.0 size=N/A time=00:00:35.63 bitrate=N/A speed=0.986x elapsed=0:00:36.12    frame= 1085 fps= 30 q=-1.0 size=N/A time=00:00:36.13 bitrate=N/A speed=0.986x elapsed=0:00:36.63    frame= 1101 fps= 30 q=-1.0 size=N/A time=00:00:36.66 bitrate=N/A speed=0.987x elapsed=0:00:37.14    frame= 1116 fps= 30 q=-1.0 size=N/A time=00:00:37.16 bitrate=N/A speed=0.987x elapsed=0:00:37.66    frame= 1132 fps= 30 q=-1.0 size=N/A time=00:00:37.70 bitrate=N/A speed=0.987x elapsed=0:00:38.18    frame= 1147 fps= 30 q=-1.0 size=N/A time=00:00:38.20 bitrate=N/A speed=0.987x elapsed=0:00:38.70    frame= 1163 fps= 30 q=-1.0 size=N/A time=00:00:38.73 bitrate=N/A speed=0.988x elapsed=0:00:39.21    frame= 1178 fps= 30 q=-1.0 size=N/A time=00:00:39.23 bitrate=N/A speed=0.987x elapsed=0:00:39.73    frame= 1194 fps= 30 q=-1.0 size=N/A time=00:00:39.73 bitrate=N/A speed=0.987x elapsed=0:00:40.24    frame= 1210 fps= 30 q=-1.0 size=N/A time=00:00:40.30 bitrate=N/A speed=0.988x elapsed=0:00:40.76    frame= 1225 fps= 30 q=-1.0 size=N/A time=00:00:40.80 bitrate=N/A speed=0.988x elapsed=0:00:41.28    frame= 1241 fps= 30 q=-1.0 size=N/A time=00:00:41.33 bitrate=N/A speed=0.989x elapsed=0:00:41.78    frame= 1256 fps= 30 q=-1.0 size=N/A time=00:00:41.83 bitrate=N/A speed=0.989x elapsed=0:00:42.31    frame= 1271 fps= 30 q=-1.0 size=N/A time=00:00:42.33 bitrate=N/A speed=0.989x elapsed=0:00:42.82    frame= 1287 fps= 30 q=-1.0 size=N/A time=00:00:42.86 bitrate=N/A speed=0.989x elapsed=0:00:43.33    frame= 1302 fps= 30 q=-1.0 size=N/A time=00:00:43.36 bitrate=N/A speed=0.989x elapsed=0:00:43.85    frame= 1348 fps= 30 q=-1.0 size=N/A time=00:00:44.88 bitrate=N/A speed=1.01x elapsed=0:00:44.38    frame= 1364 fps= 30 q=-1.0 size=N/A time=00:00:45.41 bitrate=N/A speed=1.01x elapsed=0:00:44.90    frame= 1379 fps= 30 q=-1.0 size=N/A time=00:00:45.92 bitrate=N/A speed=1.01x elapsed=0:00:45.41    frame= 1394 fps= 30 q=-1.0 size=N/A time=00:00:46.41 bitrate=N/A speed=1.01x elapsed=0:00:45.92    frame= 1410 fps= 30 q=-1.0 size=N/A time=00:00:46.96 bitrate=N/A speed=1.01x elapsed=0:00:46.45    frame= 1425 fps= 30 q=-1.0 size=N/A time=00:00:47.46 bitrate=N/A speed=1.01x elapsed=0:00:46.97    frame= 1440 fps= 30 q=-1.0 size=N/A time=00:00:47.96 bitrate=N/A speed=1.01x elapsed=0:00:47.48    frame= 1456 fps= 30 q=-1.0 size=N/A time=00:00:48.48 bitrate=N/A speed=1.01x elapsed=0:00:47.99    frame= 1472 fps= 30 q=-1.0 size=N/A time=00:00:49.03 bitrate=N/A speed=1.01x elapsed=0:00:48.52    frame= 1487 fps= 30 q=-1.0 size=N/A time=00:00:49.52 bitrate=N/A speed=1.01x elapsed=0:00:49.02    frame= 1503 fps= 30 q=-1.0 size=N/A time=00:00:50.06 bitrate=N/A speed=1.01x elapsed=0:00:49.54    frame= 1518 fps= 30 q=-1.0 size=N/A time=00:00:50.56 bitrate=N/A speed=1.01x elapsed=0:00:50.06    frame= 1534 fps= 30 q=-1.0 size=N/A time=00:00:51.08 bitrate=N/A speed=1.01x elapsed=0:00:50.56    frame= 1549 fps= 30 q=-1.0 size=N/A time=00:00:51.59 bitrate=N/A speed=1.01x elapsed=0:00:51.08    frame= 1564 fps= 30 q=-1.0 size=N/A time=00:00:52.10 bitrate=N/A speed=1.01x elapsed=0:00:51.60    frame= 1580 fps= 30 q=-1.0 size=N/A time=00:00:52.61 bitrate=N/A speed=1.01x elapsed=0:00:52.11    frame= 1595 fps= 30 q=-1.0 size=N/A time=00:00:53.13 bitrate=N/A speed=1.01x elapsed=0:00:52.63    frame= 1611 fps= 30 q=-1.0 size=N/A time=00:00:53.66 bitrate=N/A speed=1.01x elapsed=0:00:53.16    frame= 1627 fps= 30 q=-1.0 size=N/A time=00:00:54.17 bitrate=N/A speed=1.01x elapsed=0:00:53.67    frame= 1642 fps= 30 q=-1.0 size=N/A time=00:00:54.70 bitrate=N/A speed=1.01x elapsed=0:00:54.18    [out#0/rtsp @ 000001ad64b33980] video:93711KiB audio:1281KiB subtitle:0KiB other streams:0KiB global headers:0KiB muxing overhead: unknown
frame= 1643 fps= 30 q=-1.0 Lsize=N/A time=00:00:54.73 bitrate=N/A speed=1.01x elapsed=0:00:54.26    
